<?xml version="1.0" standalone="no"?>
<!DOCTYPE svg PUBLIC "-//W3C//DTD SVG 20010904//EN"
 "http://www.w3.org/TR/2001/REC-SVG-20010904/DTD/svg10.dtd">
<svg width="64" height="64" viewBox="0 0 64 64" fill="none" xmlns="http://www.w3.org/2000/svg">
    <circle cx="32" cy="32" r="32" fill="#2CC0FF"/>
    <path d="M25.5 15V17.1429H21.1667V19.2857H19V23.5714H14.6667V25.7143H10.3333V27.8571H8.16667V30H6V38.5714H8.16667V40.7143H10.3333V42.8571H12.5V45H53.6667V42.8571H55.8333V40.7143H58V32.1429H55.8333V30H53.6667V25.7143H51.5V23.5714H49.3333V21.4286H45V19.2857H40.6667V17.1429H38.5V15H25.5ZM27.6667 19.2857V21.4286H25.5V23.5714H23.3333V21.4286H25.5V19.2857H27.6667ZM12.5 30V27.8571H14.6667V30H12.5V32.1429H10.3333V30H12.5Z" fill="#EBEBEB"/>
    <path d="M27.6667 19.2856H25.5V21.4285H27.6667V19.2856Z" fill="white"/>
    <path d="M25.5 21.4285H23.3334V23.5713H25.5V21.4285Z" fill="white"/>
    <path d="M14.6667 27.8572H12.5V30H14.6667V27.8572Z" fill="white"/>
    <path d="M12.5 30H10.3334V32.1429H12.5V30Z" fill="white"/>
    <path d="M55.8333 32.1428V29.9999H53.6667V25.7142H51.5V23.5713H49.3333V21.4285H47.1667V25.7142H49.3333V29.9999H51.5V32.1428H53.6667V36.4285H49.3333V38.5713H45V40.7142H12.5V38.5713H10.3333V36.4285H6V38.5713H8.16667V40.7142H10.3333V42.857H12.5V44.9999H53.6667V42.857H55.8333V40.7142H58V32.1428H55.8333Z" fill="#DBDBDB"/>
    <path d="M45 19.2856H42.8334V21.4285H45V19.2856Z" fill="#DBDBDB"/>
    <path d="M25.5 17.1428H21.1666V19.2857H25.5V17.1428Z" fill="black"/>
    <path d="M21.1667 19.2856H19V23.5714H21.1667V19.2856Z" fill="black"/>
    <path d="M19 23.5715H14.6666V25.7144H19V23.5715Z" fill="black"/>
    <path d="M14.6667 25.7144H10.3334V27.8572H14.6667V25.7144Z" fill="black"/>
    <path d="M10.3333 27.8572H8.16663V30H10.3333V27.8572Z" fill="black"/>
    <path d="M10.3333 38.5715H8.16663V40.7144H10.3333V38.5715Z" fill="black"/>
    <path d="M12.5 40.7144H10.3334V42.8572H12.5V40.7144Z" fill="black"/>
    <path d="M40.6667 17.1428H38.5V19.2857H40.6667V17.1428Z" fill="black"/>
    <path d="M45 19.2856H40.6666V21.4285H45V19.2856Z" fill="black"/>
    <path d="M49.3333 21.4285H45V23.5713H49.3333V21.4285Z" fill="black"/>
    <path d="M51.5 23.5715H49.3334V25.7144H51.5V23.5715Z" fill="black"/>
    <path d="M53.6667 25.7144H51.5V30.0001H53.6667V25.7144Z" fill="black"/>
    <path d="M55.8333 30H53.6666V32.1429H55.8333V30Z" fill="black"/>
    <path d="M55.8333 40.7144H53.6666V42.8572H55.8333V40.7144Z" fill="black"/>
    <path d="M53.6667 42.8572H12.5V45H53.6667V42.8572Z" fill="black"/>
    <path d="M8.16667 30H6V38.5714H8.16667V30Z" fill="black"/>
    <path d="M58 32.1428H55.8334V40.7143H58V32.1428Z" fill="black"/>
    <path d="M38.5 15H25.5V17.1429H38.5V15Z" fill="black"/>
    <path d="M38.5 36.4285H27.6666V38.5713H38.5V36.4285Z" fill="black"/>
    <path d="M40.6667 27.8572H38.5V30H40.6667V27.8572Z" fill="white"/>
    <path d="M29.8333 27.8572H27.6666V30H29.8333V27.8572Z" fill="white"/>
    <path d="M40.6667 27.8572H38.5V30H40.6667V27.8572Z" fill="white"/>
    <path d="M38.5 30H36.3334V32.1429H38.5V30Z" fill="white"/>
    <path d="M29.8333 30H27.6666V32.1429H29.8333V30Z" fill="black"/>
    <path d="M10.3333 25.7144V27.8572H8.16663V30.0001H12.5V27.8572H21.1666V30.0001H23.3333V32.1429H25.5V30.0001H27.6666V27.8572H29.8333V30.0001H34.1666V32.1429H36.3333V30.0001H38.5V27.8572H40.6666V30.0001H42.8333V25.7144H10.3333Z" fill="black"/>
    <path d="M40.6667 30H38.5V32.1429H40.6667V30Z" fill="black"/>
    <path d="M27.6667 30H25.5V32.1429H27.6667V30Z" fill="white"/>
</svg>

